# xmcd CD database file
#
# Track frame offsets:
#	150
#	13727
#	27585
#	38070
#	82812
#	107507
#	150135
#	192960
#	236100
#
# Disc length: 3917 seconds
#
# Revision: 0
# Processed by: cddbd v1.5PL3 Copyright (c) Steve Scherf et al.
# Submitted via: CDex 1.50
#
DISCID=5e0f4b09
DTITLE=Miles Davis - Jazz 1 - Miles Davis 
DYEAR=1994
DGENRE=Jazz
TTITLE0=Ornithology
TTITLE1=Boplicity
TTITLE2=Israel
TTITLE3=On Green Dolphin Street
TTITLE4=Blue In Green
TTITLE5=Flamenco Sketches
TTITLE6=Milestones
TTITLE7=Joshua
TTITLE8=My Funny Valentine
EXTD=YEAR: 1994
EXTT0=
EXTT1=
EXTT2=
EXTT3=
EXTT4=
EXTT5=
EXTT6=
EXTT7=
EXTT8=
PLAYORDER=
